<svg xmlns="http://www.w3.org/2000/svg" xmlns:xlink="http://www.w3.org/1999/xlink" viewBox="0 0 621 768"><defs><filter id="a" name="AI_GaussianBlur_7"><feGaussianBlur stdDeviation="7"/></filter><linearGradient id="b" x1="-706.989" y1="1437.964" x2="578.987" y2="151.988" gradientUnits="userSpaceOnUse"><stop offset="0.665" stop-color="#7e77b6"/><stop offset="1" stop-color="#b778b1"/></linearGradient><linearGradient id="c" x1="-31.171" y1="532.642" x2="277.583" y2="223.888" gradientUnits="userSpaceOnUse"><stop offset="0" stop-color="#7e77b6"/><stop offset="0.004" stop-color="#7e78b6"/><stop offset="0.278" stop-color="#7b98c9"/><stop offset="0.541" stop-color="#79afd6"/><stop offset="0.788" stop-color="#77bdde"/><stop offset="1" stop-color="#77c2e1"/></linearGradient><linearGradient id="d" x1="-661.559" y1="356.099" x2="533.133" y2="356.099" gradientUnits="userSpaceOnUse"><stop offset="0" stop-color="#d9e4f4"/><stop offset="1" stop-color="#edf2f8"/></linearGradient><linearGradient id="e" x1="-643.267" y1="348.787" x2="533.133" y2="348.787" gradientUnits="userSpaceOnUse"><stop offset="0" stop-color="#edf2f8"/><stop offset="1" stop-color="#d9e4f4"/></linearGradient><linearGradient id="f" x1="-649.767" y1="339.849" x2="526.633" y2="339.849" xlink:href="#d"/><linearGradient id="g" x1="-639.204" y1="333.38" x2="537.195" y2="333.38" xlink:href="#e"/><linearGradient id="h" x1="-643.267" y1="327.693" x2="533.133" y2="327.693" xlink:href="#d"/><linearGradient id="i" x1="-643.267" y1="316.317" x2="533.133" y2="316.317" xlink:href="#e"/><linearGradient id="j" x1="-27.514" y1="498.043" x2="335.191" y2="135.338" gradientUnits="userSpaceOnUse"><stop offset="0.144" stop-color="#7e8cc2"/><stop offset="1" stop-color="#77c2e1"/></linearGradient><linearGradient id="k" x1="-523.8" y1="307.378" x2="542.128" y2="307.378" gradientUnits="userSpaceOnUse"><stop offset="0" stop-color="#7e77b6"/><stop offset="1" stop-color="#b778b1"/></linearGradient><linearGradient id="l" x1="-40.266" y1="523.377" x2="347.821" y2="135.29" xlink:href="#j"/><linearGradient id="m" x1="-511.121" y1="307.883" x2="554.807" y2="307.883" xlink:href="#k"/><linearGradient id="n" x1="-550.041" y1="1225.617" x2="566.456" y2="109.12" gradientUnits="userSpaceOnUse"><stop offset="0.572" stop-color="#7e77b6"/><stop offset="1" stop-color="#b778b1"/></linearGradient><linearGradient id="o" x1="-517" y1="67.524" x2="558.048" y2="67.524" xlink:href="#k"/><linearGradient id="p" x1="-517" y1="545.585" x2="558.048" y2="545.585" xlink:href="#k"/><linearGradient id="q" x1="-517" y1="69.529" x2="558.048" y2="69.529" xlink:href="#k"/><linearGradient id="r" x1="-517" y1="545.503" x2="558.048" y2="545.503" xlink:href="#k"/><linearGradient id="s" x1="156.211" y1="705.989" x2="248.424" y2="613.776" gradientUnits="userSpaceOnUse"><stop offset="0" stop-color="#7e77b6"/><stop offset="1" stop-color="#77c2e1"/></linearGradient><linearGradient id="t" x1="164.203" y1="690.083" x2="240.604" y2="613.682" gradientUnits="userSpaceOnUse"><stop offset="0.056" stop-color="#cce3ef" stop-opacity="0.636"/><stop offset="1" stop-color="#7e77b6"/></linearGradient><linearGradient id="u" x1="20.701" y1="449" x2="303.946" y2="165.755" gradientUnits="userSpaceOnUse"><stop offset="0" stop-color="#7e77b6"/><stop offset="0.204" stop-color="#7d7db9"/><stop offset="0.468" stop-color="#7c8dc3"/><stop offset="0.763" stop-color="#79a7d2"/><stop offset="1" stop-color="#77c2e1"/></linearGradient><linearGradient id="v" x1="126.533" y1="305.484" x2="176.028" y2="305.484" gradientUnits="userSpaceOnUse"><stop offset="0" stop-color="#7e81bd"/><stop offset="0.89" stop-color="#7c93c7"/><stop offset="1" stop-color="#7c96c8"/></linearGradient><linearGradient id="w" x1="125.033" y1="305.484" x2="177.528" y2="305.484" gradientUnits="userSpaceOnUse"><stop offset="0" stop-color="#8077b7"/><stop offset="1" stop-color="#8077b7"/></linearGradient><linearGradient id="x" x1="348.236" y1="67.524" x2="567" y2="67.524" xlink:href="#v"/><linearGradient id="y" x1="489.926" y1="67.524" x2="559.548" y2="67.524" xlink:href="#w"/><linearGradient id="z" x1="2636.112" y1="69.529" x2="2854.875" y2="69.529" gradientTransform="matrix(-1, 0, 0, 1, 3024.079, 0)" xlink:href="#v"/><linearGradient id="aa" x1="174.528" y1="69.529" x2="248.174" y2="69.529" xlink:href="#w"/><linearGradient id="ab" x1="2636.144" y1="545.503" x2="2854.908" y2="545.503" gradientTransform="matrix(-1, 0, 0, 1, 3024.079, 0)" xlink:href="#v"/><linearGradient id="ac" x1="174.528" y1="545.503" x2="244.403" y2="545.503" xlink:href="#w"/><linearGradient id="ad" x1="348.236" y1="545.585" x2="567" y2="545.585" xlink:href="#v"/><linearGradient id="ae" x1="489.838" y1="545.585" x2="559.548" y2="545.585" xlink:href="#w"/><filter id="af" name="AI_GaussianBlur_4"><feGaussianBlur stdDeviation="4"/></filter></defs><title>theinternet-dns-svgiflter-onlyonce</title><g style="opacity:0.4;filter:url(#a)"><path d="M537.76,54.3H166.028V51.962h-49.5V54.3H98.489c-16.759,0-30.345,11.27-30.345,25.171v565.6a12.821,12.821,0,0,0,.478,3.092c.969,5.2,3.368,9.478,6.525,11.84a5.472,5.472,0,0,0,3.515,1.712h0a8.546,8.546,0,0,0,2.086.281H537.427c5.634,0,10.2-3.816,10.2-8.524l.42-127.95V62.888C548.048,58.147,543.441,54.3,537.76,54.3Z" style="fill:#7c96c8"/></g><path d="M532.427,110.153H163.848V650.8H532.427c5.634,0,10.2-3.871,10.2-8.647V118.8C542.627,114.025,538.06,110.153,532.427,110.153Z" style="fill:url(#b)"/><path d="M78.144,110.153V631.572c0,10.617,5.644,19.224,12.605,19.224h73.1V110.153Z" style="fill:url(#c)"/><polygon points="180.843 640.393 180.843 685.578 180.843 685.578 180.843 727.997 216.466 705.404 252.09 727.997 252.09 685.578 252.09 682.812 252.09 640.393 180.843 640.393" style="fill:#7e77b6;opacity:0.30000000000000004"/><path d="M521.7,85.778H108.6v524.67a15.787,15.787,0,0,0,15.594,15.973H521.7c6.314,0,11.433-3.871,11.433-8.647V94.425C533.133,89.65,528.014,85.778,521.7,85.778Z" style="fill:url(#d)"/><path d="M521.875,78.465H115.1v524.67c0,8.822,6.875,15.973,15.355,15.973H521.875c6.217,0,11.258-3.871,11.258-8.647V87.113C533.133,82.337,528.093,78.465,521.875,78.465Z" style="fill:url(#e)"/><path d="M515.375,69.528H108.6V594.2c0,8.822,6.875,15.973,15.355,15.973H515.375c6.217,0,11.258-3.871,11.258-8.647V78.175C526.633,73.4,521.592,69.528,515.375,69.528Z" style="fill:url(#f)"/><path d="M525.938,63.059H119.16v524.67c0,8.822,6.875,15.973,15.355,15.973H525.938c6.217,0,11.258-3.871,11.258-8.647V71.706C537.2,66.93,532.155,63.059,525.938,63.059Z" style="fill:url(#g)"/><path d="M521.875,57.371H115.1v524.67c0,8.822,6.875,15.973,15.355,15.973H521.875c6.217,0,11.258-3.871,11.258-8.647V66.019C533.133,61.243,528.093,57.371,521.875,57.371Z" style="fill:url(#h)"/><path d="M521.875,46H115.1v524.67c0,8.822,6.875,15.973,15.355,15.973H521.875c6.217,0,11.258-3.871,11.258-8.647V54.644C533.133,49.868,528.093,46,521.875,46Z" style="fill:url(#i)"/><rect x="98.877" y="570.181" width="24" height="55.665" rx="12" ry="12" style="fill:#6c689b"/><path d="M108.489,34.337c-16.759,0-30.345,11.432-30.345,25.534v517.6h0V603.7c0-14.1,13.586-25.534,30.345-25.534h125.7V34.337Z" style="fill:url(#j)"/><path d="M531.928,36.949H163.349V577.806H531.928c5.634,0,10.2-3.873,10.2-8.651V45.6C542.128,40.822,537.561,36.949,531.928,36.949Z" style="fill:url(#k)"/><path d="M121.168,34.337c-16.759,0-30.345,11.428-30.345,25.525v54.976a3.694,3.694,0,0,0-3.676-3.691H81.82a3.694,3.694,0,0,0-3.676,3.691V633.627c0,4.973,5.566,16.884,10.518,16.884,0,0,2.088.286,2.161-3.453V603.5c0-14.1,13.586-25.525,30.345-25.525h125.7V34.337Z" style="fill:url(#l)"/><path d="M544.607,36.949H176.028V578.817H544.607c5.634,0,10.2-3.88,10.2-8.667V45.616C554.807,40.829,550.24,36.949,544.607,36.949Z" style="fill:url(#m)"/><polygon points="491.426 34.337 246.674 34.337 176.028 104.722 176.028 512.19 242.903 578.817 491.338 578.817 558.048 512.354 558.048 100.712 491.426 34.337" style="fill:url(#n)"/><path d="M558.048,43.046c0-4.81-4.606-8.709-10.288-8.709H491.426l66.621,66.375Z" style="fill:url(#o)"/><path d="M547.76,578.817c5.682,0,10.288-3.9,10.288-8.709V512.354l-66.71,66.463Z" style="fill:url(#p)"/><polygon points="176.028 34.337 176.028 104.722 246.674 34.337 176.028 34.337" style="fill:url(#q)"/><polygon points="176.028 578.817 242.903 578.817 176.028 512.19 176.028 578.817" style="fill:url(#r)"/><polygon points="163.848 606.139 163.848 661.58 163.848 661.58 163.848 713.626 202.317 685.906 240.786 713.626 240.786 661.58 240.786 658.185 240.786 606.139 163.848 606.139" style="fill:url(#s)"/><polygon points="171.807 606.078 171.807 653.329 171.807 653.329 171.807 697.687 202.404 674.061 233 697.687 233 653.329 233 650.436 233 606.078 171.807 606.078" style="fill:url(#t)"/><rect x="149.506" y="36.949" width="25.634" height="540.857" style="fill:url(#u)"/><rect x="126.533" y="31.962" width="49.495" height="547.043" style="stroke-linecap:round;stroke-linejoin:round;stroke-width:3px;fill:url(#v);stroke:url(#w)"/><path d="M516.421,555.2a3.362,3.362,0,1,1,3.363-3.362A3.366,3.366,0,0,1,516.421,555.2Zm0-5.153a1.791,1.791,0,1,0,1.791,1.791A1.793,1.793,0,0,0,516.421,550.046Z" style="fill:#c2d6ed"/><path d="M506.258,543.5a3.363,3.363,0,1,1,3.362-3.362A3.366,3.366,0,0,1,506.258,543.5Zm0-5.154a1.791,1.791,0,1,0,1.791,1.791A1.793,1.793,0,0,0,506.258,538.343Z" style="fill:#c2d6ed"/><path d="M469.925,555.2a3.362,3.362,0,1,1,3.363-3.362A3.366,3.366,0,0,1,469.925,555.2Zm0-5.153a1.791,1.791,0,1,0,1.791,1.791A1.793,1.793,0,0,0,469.925,550.046Z" style="fill:#c2d6ed"/><path d="M516.858,508.7a3.363,3.363,0,1,1,3.363-3.363A3.367,3.367,0,0,1,516.858,508.7Zm0-5.154a1.791,1.791,0,1,0,1.791,1.791A1.793,1.793,0,0,0,516.858,503.549Z" style="fill:#c2d6ed"/><path d="M469.925,485.455a3.363,3.363,0,1,1,3.363-3.362A3.366,3.366,0,0,1,469.925,485.455Zm0-5.154a1.791,1.791,0,1,0,1.791,1.791A1.793,1.793,0,0,0,469.925,480.3Z" style="fill:#c2d6ed"/><path d="M539.67,555.2a3.362,3.362,0,1,1,3.363-3.362A3.366,3.366,0,0,1,539.67,555.2Zm0-5.153a1.791,1.791,0,1,0,1.791,1.791A1.793,1.793,0,0,0,539.67,550.046Z" style="fill:#c2d6ed"/><path d="M550.679,566H445.891v-14.95h21.457v1.572H447.462v11.807H549.108V540.748H525.744V500.953a18.1,18.1,0,0,0-18.075-18.075H472.5v-1.572h35.167a19.669,19.669,0,0,1,19.647,19.647v38.223h23.364Z" style="fill:#c2d6ed"/><polygon points="514.282 506.126 469.139 506.126 469.139 493.716 470.711 493.716 470.711 504.554 514.282 504.554 514.282 506.126" style="fill:#c2d6ed"/><rect x="483.788" y="492.93" width="22.47" height="1.572" style="fill:#c2d6ed"/><polygon points="486.919 496.381 484.252 493.716 486.919 491.052 484.656 491.052 481.992 493.716 484.656 496.381 486.919 496.381" style="fill:#c2d6ed"/><path d="M539.67,531.951a3.363,3.363,0,1,1,3.363-3.363A3.367,3.367,0,0,1,539.67,531.951Zm0-5.154a1.791,1.791,0,1,0,1.791,1.791A1.793,1.793,0,0,0,539.67,526.8Z" style="fill:#c2d6ed"/><rect x="538.884" y="507.137" width="1.572" height="18.875" style="fill:#c2d6ed"/><polygon points="542.334 510.267 539.67 507.601 537.005 510.267 537.005 508.005 539.67 505.34 542.334 508.005 542.334 510.267" style="fill:#c2d6ed"/><rect x="518.998" y="551.051" width="18.095" height="1.572" style="fill:#c2d6ed"/><polygon points="507.044 552.687 483.196 552.687 483.196 540.92 471.721 540.92 471.721 539.348 484.768 539.348 484.768 551.115 505.472 551.115 505.472 542.709 507.044 542.709 507.044 552.687" style="fill:#c2d6ed"/><polygon points="474.852 537.469 472.186 540.134 474.852 542.798 472.589 542.798 469.925 540.134 472.589 537.469 474.852 537.469" style="fill:#c2d6ed"/><path d="M447.757,520.956a3.363,3.363,0,1,1,3.363-3.363A3.367,3.367,0,0,1,447.757,520.956Zm0-5.154a1.791,1.791,0,1,0,1.791,1.791A1.793,1.793,0,0,0,447.757,515.8Z" style="fill:#c2d6ed"/><path d="M447.757,497.708a3.363,3.363,0,1,1,3.363-3.362A3.366,3.366,0,0,1,447.757,497.708Zm0-5.154a1.791,1.791,0,1,0,1.791,1.791A1.793,1.793,0,0,0,447.757,492.554Z" style="fill:#c2d6ed"/><polygon points="461.792 540.369 446.904 540.369 446.971 520.168 448.543 520.173 448.481 538.797 460.22 538.797 460.22 495.131 450.334 495.131 450.334 493.56 461.792 493.56 461.792 540.369" style="fill:#c2d6ed"/><path d="M493.024,468.677a3.363,3.363,0,1,1,3.362-3.362A3.366,3.366,0,0,1,493.024,468.677Zm0-5.154a1.791,1.791,0,1,0,1.791,1.791A1.793,1.793,0,0,0,493.024,463.523Z" style="fill:#c2d6ed"/><rect x="482.379" y="464.528" width="8.068" height="1.572" style="fill:#c2d6ed"/><polygon points="485.51 462.65 482.844 465.314 485.51 467.979 483.247 467.979 480.583 465.314 483.247 462.65 485.51 462.65" style="fill:#c2d6ed"/><path d="M471.844,526.1a3.362,3.362,0,1,1,3.363-3.362A3.366,3.366,0,0,1,471.844,526.1Zm0-5.153a1.791,1.791,0,1,0,1.791,1.791A1.793,1.793,0,0,0,471.844,520.946Z" style="fill:#c2d6ed"/><rect x="474.421" y="521.951" width="30.698" height="1.572" style="fill:#c2d6ed"/><polygon points="501.988 525.401 504.654 522.737 501.988 520.072 504.251 520.072 506.915 522.737 504.251 525.401 501.988 525.401" style="fill:#c2d6ed"/><path d="M516.858,541.815a3.363,3.363,0,1,1,3.363-3.363A3.367,3.367,0,0,1,516.858,541.815Zm0-5.154a1.791,1.791,0,1,0,1.791,1.791A1.793,1.793,0,0,0,516.858,536.661Z" style="fill:#c2d6ed"/><rect x="516.073" y="527.808" width="1.572" height="8.067" style="fill:#c2d6ed"/><polygon points="519.523 530.939 516.859 528.273 514.194 530.939 514.194 528.676 516.859 526.012 519.523 528.676 519.523 530.939" style="fill:#c2d6ed"/><path d="M432.422,567.7a3.362,3.362,0,1,1,3.363-3.362A3.366,3.366,0,0,1,432.422,567.7Zm0-5.153a1.791,1.791,0,1,0,1.791,1.791A1.793,1.793,0,0,0,432.422,562.551Z" style="fill:#c2d6ed"/><rect x="431.636" y="553.698" width="1.572" height="8.067" style="fill:#c2d6ed"/><polygon points="435.086 556.828 432.422 554.162 429.757 556.828 429.757 554.566 432.422 551.901 435.086 554.566 435.086 556.828" style="fill:#c2d6ed"/><path d="M539.67,497.362A3.363,3.363,0,1,1,543.032,494,3.367,3.367,0,0,1,539.67,497.362Zm0-5.154A1.791,1.791,0,1,0,541.461,494,1.793,1.793,0,0,0,539.67,492.209Z" style="fill:#c2d6ed"/><rect x="538.884" y="423.191" width="1.572" height="68.232" style="fill:#c2d6ed"/><polygon points="542.334 426.322 539.67 423.655 537.005 426.322 537.005 424.059 539.67 421.394 542.334 424.059 542.334 426.322" style="fill:#c2d6ed"/><path d="M494.325,448.005a3.363,3.363,0,1,1,3.363-3.363A3.367,3.367,0,0,1,494.325,448.005Zm0-5.154a1.791,1.791,0,1,0,1.791,1.791A1.793,1.793,0,0,0,494.325,442.852Z" style="fill:#c2d6ed"/><path d="M510.448,468.677H504.9V445.428h-8v-1.572h9.572V467.1h3.974a18.182,18.182,0,0,0,18.162-18.162V423.191h1.572v25.752A19.756,19.756,0,0,1,510.448,468.677Z" style="fill:#c2d6ed"/><polygon points="526.73 426.322 529.395 423.655 532.06 426.322 532.06 424.059 529.395 421.394 526.73 424.059 526.73 426.322" style="fill:#c2d6ed"/><path d="M216.954,551.789a3.363,3.363,0,1,1,3.363,3.362A3.366,3.366,0,0,1,216.954,551.789Zm1.572,0A1.791,1.791,0,1,0,220.317,550,1.793,1.793,0,0,0,218.526,551.789Z" style="fill:#c2d6ed"/><path d="M227.117,540.086a3.363,3.363,0,1,1,3.362,3.362A3.367,3.367,0,0,1,227.117,540.086Zm1.572,0a1.791,1.791,0,1,0,1.791-1.791A1.793,1.793,0,0,0,228.689,540.086Z" style="fill:#c2d6ed"/><path d="M263.451,551.789a3.363,3.363,0,1,1,3.363,3.362A3.366,3.366,0,0,1,263.451,551.789Zm1.572,0A1.791,1.791,0,1,0,266.813,550,1.793,1.793,0,0,0,265.022,551.789Z" style="fill:#c2d6ed"/><path d="M216.517,505.292a3.363,3.363,0,1,1,3.363,3.363A3.366,3.366,0,0,1,216.517,505.292Zm1.572,0a1.791,1.791,0,1,0,1.791-1.791A1.793,1.793,0,0,0,218.089,505.292Z" style="fill:#c2d6ed"/><path d="M263.451,482.044a3.363,3.363,0,1,1,3.363,3.362A3.367,3.367,0,0,1,263.451,482.044Zm1.572,0a1.791,1.791,0,1,0,1.791-1.791A1.793,1.793,0,0,0,265.022,482.044Z" style="fill:#c2d6ed"/><path d="M193.706,551.789a3.363,3.363,0,1,1,3.363,3.362A3.366,3.366,0,0,1,193.706,551.789Zm1.572,0A1.791,1.791,0,1,0,197.068,550,1.793,1.793,0,0,0,195.277,551.789Z" style="fill:#c2d6ed"/><path d="M193.706,528.541a3.363,3.363,0,1,1,3.363,3.363A3.366,3.366,0,0,1,193.706,528.541Zm1.572,0a1.791,1.791,0,1,0,1.791-1.791A1.793,1.793,0,0,0,195.277,528.541Z" style="fill:#c2d6ed"/><path d="M186.059,565.953H290.848V551H269.39v1.572h19.886v11.807H187.63V540.7h23.364V500.905a18.1,18.1,0,0,1,18.075-18.075h35.167v-1.572H229.069a19.669,19.669,0,0,0-19.647,19.647v38.223H186.059Z" style="fill:#c2d6ed"/><polygon points="222.456 506.078 267.599 506.078 267.599 493.668 266.027 493.668 266.027 504.506 222.456 504.506 222.456 506.078" style="fill:#c2d6ed"/><rect x="230.48" y="492.882" width="22.47" height="1.572" style="fill:#c2d6ed"/><polygon points="249.82 496.333 252.486 493.668 249.82 491.004 252.082 491.004 254.747 493.668 252.082 496.333 249.82 496.333" style="fill:#c2d6ed"/><rect x="196.283" y="507.089" width="1.572" height="18.875" style="fill:#c2d6ed"/><polygon points="194.404 510.22 197.068 507.553 199.733 510.22 199.733 507.957 197.068 505.293 194.404 507.957 194.404 510.22" style="fill:#c2d6ed"/><rect x="199.645" y="551.003" width="18.095" height="1.572" style="fill:#c2d6ed"/><polygon points="229.694 552.639 253.542 552.639 253.542 540.872 265.017 540.872 265.017 539.3 251.97 539.3 251.97 551.068 231.266 551.068 231.266 542.661 229.694 542.661 229.694 552.639" style="fill:#c2d6ed"/><polygon points="261.886 537.421 264.552 540.086 261.886 542.75 264.149 542.75 266.813 540.086 264.149 537.421 261.886 537.421" style="fill:#c2d6ed"/><path d="M285.618,517.546a3.363,3.363,0,1,1,3.363,3.363A3.366,3.366,0,0,1,285.618,517.546Zm1.572,0a1.791,1.791,0,1,0,1.791-1.791A1.793,1.793,0,0,0,287.19,517.546Z" style="fill:#c2d6ed"/><path d="M285.618,494.3a3.363,3.363,0,1,1,3.363,3.362A3.367,3.367,0,0,1,285.618,494.3Zm1.572,0a1.791,1.791,0,1,0,1.791-1.791A1.793,1.793,0,0,0,287.19,494.3Z" style="fill:#c2d6ed"/><polygon points="274.946 540.321 289.834 540.321 289.767 520.12 288.195 520.125 288.257 538.75 276.518 538.75 276.518 495.084 286.404 495.084 286.404 493.512 274.946 493.512 274.946 540.321" style="fill:#c2d6ed"/><path d="M240.352,465.267a3.363,3.363,0,1,1,3.362,3.362A3.367,3.367,0,0,1,240.352,465.267Zm1.572,0a1.791,1.791,0,1,0,1.791-1.791A1.793,1.793,0,0,0,241.924,465.267Z" style="fill:#c2d6ed"/><rect x="246.291" y="464.481" width="8.068" height="1.572" style="fill:#c2d6ed"/><polygon points="251.228 462.602 253.894 465.267 251.228 467.931 253.491 467.931 256.155 465.267 253.491 462.602 251.228 462.602" style="fill:#c2d6ed"/><path d="M261.531,522.689a3.363,3.363,0,1,1,3.363,3.362A3.366,3.366,0,0,1,261.531,522.689Zm1.572,0a1.791,1.791,0,1,0,1.791-1.791A1.793,1.793,0,0,0,263.1,522.689Z" style="fill:#c2d6ed"/><rect x="231.619" y="521.903" width="30.698" height="1.572" style="fill:#c2d6ed"/><polygon points="234.75 525.354 232.084 522.689 234.75 520.025 232.487 520.025 229.823 522.689 232.487 525.354 234.75 525.354" style="fill:#c2d6ed"/><path d="M216.517,538.4a3.363,3.363,0,1,1,3.363,3.363A3.366,3.366,0,0,1,216.517,538.4Zm1.572,0a1.791,1.791,0,1,0,1.791-1.791A1.793,1.793,0,0,0,218.089,538.4Z" style="fill:#c2d6ed"/><rect x="219.094" y="527.76" width="1.572" height="8.067" style="fill:#c2d6ed"/><polygon points="217.215 530.891 219.88 528.225 222.544 530.891 222.544 528.628 219.88 525.964 217.215 528.628 217.215 530.891" style="fill:#c2d6ed"/><path d="M300.954,564.294a3.363,3.363,0,1,1,3.363,3.362A3.366,3.366,0,0,1,300.954,564.294Zm1.572,0a1.791,1.791,0,1,0,1.791-1.791A1.793,1.793,0,0,0,302.525,564.294Z" style="fill:#c2d6ed"/><rect x="303.531" y="553.65" width="1.572" height="8.067" style="fill:#c2d6ed"/><polygon points="301.652 556.781 304.316 554.115 306.981 556.781 306.981 554.518 304.316 551.854 301.652 554.518 301.652 556.781" style="fill:#c2d6ed"/><path d="M193.706,493.952a3.363,3.363,0,1,1,3.363,3.363A3.366,3.366,0,0,1,193.706,493.952Zm1.572,0a1.791,1.791,0,1,0,1.791-1.791A1.793,1.793,0,0,0,195.277,493.952Z" style="fill:#c2d6ed"/><rect x="196.283" y="423.143" width="1.572" height="68.232" style="fill:#c2d6ed"/><polygon points="194.404 426.274 197.068 423.608 199.733 426.274 199.733 424.011 197.068 421.347 194.404 424.011 194.404 426.274" style="fill:#c2d6ed"/><path d="M239.05,444.595a3.363,3.363,0,1,1,3.363,3.363A3.366,3.366,0,0,1,239.05,444.595Zm1.572,0a1.791,1.791,0,1,0,1.791-1.791A1.793,1.793,0,0,0,240.622,444.595Z" style="fill:#c2d6ed"/><path d="M226.291,468.629h5.546V445.381h8v-1.572h-9.572v23.248h-3.974A18.182,18.182,0,0,1,208.129,448.9V423.143h-1.572V448.9A19.756,19.756,0,0,0,226.291,468.629Z" style="fill:#c2d6ed"/><polygon points="210.008 426.274 207.343 423.608 204.679 426.274 204.679 424.011 207.343 421.347 210.008 424.011 210.008 426.274" style="fill:#c2d6ed"/><path d="M220.525,57.5a3.362,3.362,0,1,1-3.363,3.362A3.366,3.366,0,0,1,220.525,57.5Zm0,5.153a1.791,1.791,0,1,0-1.791-1.791A1.793,1.793,0,0,0,220.525,62.654Z" style="fill:#c2d6ed"/><path d="M230.688,69.2a3.363,3.363,0,1,1-3.362,3.362A3.366,3.366,0,0,1,230.688,69.2Zm0,5.154a1.791,1.791,0,1,0-1.791-1.791A1.793,1.793,0,0,0,230.688,74.358Z" style="fill:#c2d6ed"/><path d="M267.022,57.5a3.362,3.362,0,1,1-3.363,3.362A3.366,3.366,0,0,1,267.022,57.5Zm0,5.153a1.791,1.791,0,1,0-1.791-1.791A1.793,1.793,0,0,0,267.022,62.654Z" style="fill:#c2d6ed"/><path d="M220.088,104a3.363,3.363,0,1,1-3.363,3.363A3.367,3.367,0,0,1,220.088,104Zm0,5.154a1.791,1.791,0,1,0-1.791-1.791A1.793,1.793,0,0,0,220.088,109.151Z" style="fill:#c2d6ed"/><path d="M267.022,127.246a3.363,3.363,0,1,1-3.363,3.362A3.366,3.366,0,0,1,267.022,127.246Zm0,5.154a1.791,1.791,0,1,0-1.791-1.791A1.793,1.793,0,0,0,267.022,132.4Z" style="fill:#c2d6ed"/><path d="M197.277,57.5a3.362,3.362,0,1,1-3.363,3.362A3.366,3.366,0,0,1,197.277,57.5Zm0,5.153a1.791,1.791,0,1,0-1.791-1.791A1.793,1.793,0,0,0,197.277,62.654Z" style="fill:#c2d6ed"/><path d="M197.277,80.749a3.363,3.363,0,1,1-3.363,3.363A3.367,3.367,0,0,1,197.277,80.749Zm0,5.154a1.791,1.791,0,1,0-1.791-1.791A1.793,1.793,0,0,0,197.277,85.9Z" style="fill:#c2d6ed"/><path d="M186.267,46.7H291.056V61.65H269.6V60.078h19.886V48.271H187.839V71.953H211.2v39.795a18.1,18.1,0,0,0,18.075,18.075h35.167v1.572H229.278a19.669,19.669,0,0,1-19.647-19.647V73.525H186.267Z" style="fill:#c2d6ed"/><polygon points="222.665 106.575 267.808 106.575 267.808 118.985 266.236 118.985 266.236 108.146 222.665 108.146 222.665 106.575" style="fill:#c2d6ed"/><rect x="230.688" y="118.199" width="22.47" height="1.572" style="fill:#c2d6ed"/><polygon points="250.028 116.32 252.694 118.984 250.028 121.649 252.29 121.649 254.955 118.984 252.29 116.32 250.028 116.32" style="fill:#c2d6ed"/><rect x="196.491" y="86.689" width="1.572" height="18.875" style="fill:#c2d6ed"/><polygon points="194.612 102.433 197.277 105.099 199.941 102.433 199.941 104.696 197.277 107.36 194.612 104.696 194.612 102.433" style="fill:#c2d6ed"/><rect x="199.854" y="60.078" width="18.095" height="1.572" style="fill:#c2d6ed"/><polygon points="229.902 60.013 253.751 60.013 253.751 71.781 265.225 71.781 265.225 73.353 252.179 73.353 252.179 61.585 231.474 61.585 231.474 69.992 229.902 69.992 229.902 60.013" style="fill:#c2d6ed"/><polygon points="262.095 75.232 264.761 72.567 262.095 69.902 264.357 69.902 267.022 72.567 264.357 75.232 262.095 75.232" style="fill:#c2d6ed"/><path d="M289.189,91.744a3.363,3.363,0,1,1-3.363,3.363A3.367,3.367,0,0,1,289.189,91.744Zm0,5.154a1.791,1.791,0,1,0-1.791-1.791A1.793,1.793,0,0,0,289.189,96.9Z" style="fill:#c2d6ed"/><path d="M289.189,114.993a3.363,3.363,0,1,1-3.363,3.362A3.366,3.366,0,0,1,289.189,114.993Zm0,5.154a1.791,1.791,0,1,0-1.791-1.791A1.793,1.793,0,0,0,289.189,120.146Z" style="fill:#c2d6ed"/><polygon points="275.154 72.331 290.042 72.331 289.975 92.533 288.404 92.527 288.466 73.903 276.726 73.903 276.726 117.569 286.613 117.569 286.613 119.141 275.154 119.141 275.154 72.331" style="fill:#c2d6ed"/><path d="M243.923,144.024a3.363,3.363,0,1,1-3.362,3.362A3.366,3.366,0,0,1,243.923,144.024Zm0,5.154a1.791,1.791,0,1,0-1.791-1.791A1.793,1.793,0,0,0,243.923,149.177Z" style="fill:#c2d6ed"/><rect x="246.5" y="146.6" width="8.068" height="1.572" style="fill:#c2d6ed"/><polygon points="251.437 150.051 254.103 147.386 251.437 144.722 253.699 144.722 256.364 147.386 253.699 150.051 251.437 150.051" style="fill:#c2d6ed"/><path d="M265.1,86.6a3.362,3.362,0,1,1-3.363,3.362A3.366,3.366,0,0,1,265.1,86.6Zm0,5.153a1.791,1.791,0,1,0-1.791-1.791A1.793,1.793,0,0,0,265.1,91.754Z" style="fill:#c2d6ed"/><rect x="231.828" y="89.178" width="30.698" height="1.572" style="fill:#c2d6ed"/><polygon points="234.958 87.299 232.292 89.964 234.958 92.628 232.696 92.628 230.031 89.964 232.696 87.299 234.958 87.299" style="fill:#c2d6ed"/><path d="M220.088,70.886a3.363,3.363,0,1,1-3.363,3.363A3.367,3.367,0,0,1,220.088,70.886Zm0,5.154a1.791,1.791,0,1,0-1.791-1.791A1.793,1.793,0,0,0,220.088,76.039Z" style="fill:#c2d6ed"/><rect x="219.302" y="76.825" width="1.572" height="8.067" style="fill:#c2d6ed"/><polygon points="217.423 81.762 220.088 84.428 222.752 81.762 222.752 84.024 220.088 86.689 217.423 84.024 217.423 81.762" style="fill:#c2d6ed"/><path d="M301.525,46a3.362,3.362,0,1,1-3.363,3.362A3.366,3.366,0,0,1,301.525,46Zm0,5.153a1.791,1.791,0,1,0-1.791-1.791A1.793,1.793,0,0,0,301.525,51.149Z" style="fill:#c2d6ed"/><rect x="300.739" y="51.935" width="1.572" height="8.067" style="fill:#c2d6ed"/><polygon points="298.86 56.872 301.525 59.538 304.189 56.872 304.189 59.135 301.525 61.799 298.86 59.135 298.86 56.872" style="fill:#c2d6ed"/><path d="M197.277,115.338a3.363,3.363,0,1,1-3.363,3.363A3.367,3.367,0,0,1,197.277,115.338Zm0,5.154a1.791,1.791,0,1,0-1.791-1.791A1.793,1.793,0,0,0,197.277,120.492Z" style="fill:#c2d6ed"/><rect x="196.491" y="121.278" width="1.572" height="68.232" style="fill:#c2d6ed"/><polygon points="194.612 186.379 197.277 189.045 199.941 186.379 199.941 188.642 197.277 191.306 194.612 188.642 194.612 186.379" style="fill:#c2d6ed"/><path d="M242.621,164.7a3.363,3.363,0,1,1-3.363,3.363A3.367,3.367,0,0,1,242.621,164.7Zm0,5.154a1.791,1.791,0,1,0-1.791-1.791A1.793,1.793,0,0,0,242.621,169.849Z" style="fill:#c2d6ed"/><path d="M226.5,144.024h5.546v23.248h8v1.572h-9.572V145.6H226.5a18.182,18.182,0,0,0-18.162,18.162V189.51h-1.572V163.757A19.756,19.756,0,0,1,226.5,144.024Z" style="fill:#c2d6ed"/><polygon points="210.216 186.379 207.551 189.045 204.887 186.379 204.887 188.642 207.551 191.306 210.216 188.642 210.216 186.379" style="fill:#c2d6ed"/><path d="M517.7,61.483a3.363,3.363,0,1,1-3.363-3.362A3.366,3.366,0,0,1,517.7,61.483Zm-1.572,0a1.791,1.791,0,1,0-1.791,1.791A1.793,1.793,0,0,0,516.131,61.483Z" style="fill:#c2d6ed"/><path d="M507.539,73.186a3.363,3.363,0,1,1-3.362-3.362A3.367,3.367,0,0,1,507.539,73.186Zm-1.572,0a1.791,1.791,0,1,0-1.791,1.791A1.793,1.793,0,0,0,505.968,73.186Z" style="fill:#c2d6ed"/><path d="M471.206,61.483a3.363,3.363,0,1,1-3.363-3.362A3.366,3.366,0,0,1,471.206,61.483Zm-1.572,0a1.791,1.791,0,1,0-1.791,1.791A1.793,1.793,0,0,0,469.634,61.483Z" style="fill:#c2d6ed"/><path d="M518.14,107.98a3.363,3.363,0,1,1-3.363-3.363A3.366,3.366,0,0,1,518.14,107.98Zm-1.572,0a1.791,1.791,0,1,0-1.791,1.791A1.793,1.793,0,0,0,516.568,107.98Z" style="fill:#c2d6ed"/><path d="M471.206,131.228a3.363,3.363,0,1,1-3.363-3.362A3.367,3.367,0,0,1,471.206,131.228Zm-1.572,0a1.791,1.791,0,1,0-1.791,1.791A1.793,1.793,0,0,0,469.634,131.228Z" style="fill:#c2d6ed"/><path d="M540.951,61.483a3.363,3.363,0,1,1-3.363-3.362A3.366,3.366,0,0,1,540.951,61.483Zm-1.572,0a1.791,1.791,0,1,0-1.791,1.791A1.793,1.793,0,0,0,539.379,61.483Z" style="fill:#c2d6ed"/><path d="M540.951,84.732a3.363,3.363,0,1,1-3.363-3.363A3.366,3.366,0,0,1,540.951,84.732Zm-1.572,0a1.791,1.791,0,1,0-1.791,1.791A1.793,1.793,0,0,0,539.379,84.732Z" style="fill:#c2d6ed"/><path d="M548.6,47.319H443.809v14.95h21.457V60.7H445.381V48.891H547.026V72.572H523.663v39.795a18.1,18.1,0,0,1-18.075,18.075H470.42v1.572h35.167a19.669,19.669,0,0,0,19.647-19.647V74.144H548.6Z" style="fill:#c2d6ed"/><polygon points="512.2 107.194 467.058 107.194 467.058 119.604 468.629 119.604 468.629 108.766 512.2 108.766 512.2 107.194" style="fill:#c2d6ed"/><rect x="481.707" y="118.818" width="22.47" height="1.572" style="fill:#c2d6ed"/><polygon points="484.837 116.939 482.171 119.604 484.837 122.268 482.575 122.268 479.91 119.604 482.575 116.939 484.837 116.939" style="fill:#c2d6ed"/><rect x="536.802" y="87.308" width="1.572" height="18.875" style="fill:#c2d6ed"/><polygon points="540.253 103.053 537.588 105.719 534.924 103.053 534.924 105.315 537.588 107.98 540.253 105.315 540.253 103.053" style="fill:#c2d6ed"/><rect x="516.917" y="60.697" width="18.095" height="1.572" style="fill:#c2d6ed"/><polygon points="504.963 60.633 481.115 60.633 481.115 72.4 469.64 72.4 469.64 73.972 482.686 73.972 482.686 62.205 503.391 62.205 503.391 70.611 504.963 70.611 504.963 60.633" style="fill:#c2d6ed"/><polygon points="472.77 75.851 470.104 73.186 472.77 70.522 470.508 70.522 467.843 73.186 470.508 75.851 472.77 75.851" style="fill:#c2d6ed"/><path d="M449.038,95.726a3.363,3.363,0,1,1-3.363-3.363A3.366,3.366,0,0,1,449.038,95.726Zm-1.572,0a1.791,1.791,0,1,0-1.791,1.791A1.793,1.793,0,0,0,447.467,95.726Z" style="fill:#c2d6ed"/><path d="M449.038,118.974a3.363,3.363,0,1,1-3.363-3.362A3.367,3.367,0,0,1,449.038,118.974Zm-1.572,0a1.791,1.791,0,1,0-1.791,1.791A1.793,1.793,0,0,0,447.467,118.974Z" style="fill:#c2d6ed"/><polygon points="459.711 72.951 444.823 72.951 444.89 93.152 446.461 93.147 446.4 74.523 458.139 74.523 458.139 118.188 448.252 118.188 448.252 119.76 459.711 119.76 459.711 72.951" style="fill:#c2d6ed"/><path d="M494.3,148.006a3.363,3.363,0,1,1-3.362-3.362A3.367,3.367,0,0,1,494.3,148.006Zm-1.572,0a1.791,1.791,0,1,0-1.791,1.791A1.793,1.793,0,0,0,492.733,148.006Z" style="fill:#c2d6ed"/><rect x="480.298" y="147.22" width="8.068" height="1.572" style="fill:#c2d6ed"/><polygon points="483.428 150.67 480.762 148.006 483.428 145.341 481.166 145.341 478.501 148.006 481.166 150.67 483.428 150.67" style="fill:#c2d6ed"/><path d="M473.126,90.583a3.363,3.363,0,1,1-3.363-3.362A3.366,3.366,0,0,1,473.126,90.583Zm-1.572,0a1.791,1.791,0,1,0-1.791,1.791A1.793,1.793,0,0,0,471.554,90.583Z" style="fill:#c2d6ed"/><rect x="472.34" y="89.797" width="30.698" height="1.572" style="fill:#c2d6ed"/><polygon points="499.907 87.919 502.573 90.583 499.907 93.248 502.169 93.248 504.834 90.583 502.169 87.919 499.907 87.919" style="fill:#c2d6ed"/><path d="M518.14,74.868a3.363,3.363,0,1,1-3.363-3.363A3.366,3.366,0,0,1,518.14,74.868Zm-1.572,0a1.791,1.791,0,1,0-1.791,1.791A1.793,1.793,0,0,0,516.568,74.868Z" style="fill:#c2d6ed"/><rect x="513.991" y="77.444" width="1.572" height="8.067" style="fill:#c2d6ed"/><polygon points="517.442 82.381 514.777 85.047 512.113 82.381 512.113 84.644 514.777 87.308 517.442 84.644 517.442 82.381" style="fill:#c2d6ed"/><path d="M433.7,48.978a3.363,3.363,0,1,1-3.363-3.362A3.366,3.366,0,0,1,433.7,48.978Zm-1.572,0a1.791,1.791,0,1,0-1.791,1.791A1.793,1.793,0,0,0,432.131,48.978Z" style="fill:#c2d6ed"/><rect x="429.554" y="51.555" width="1.572" height="8.067" style="fill:#c2d6ed"/><polygon points="433.005 56.492 430.34 59.158 427.676 56.492 427.676 58.754 430.34 61.419 433.005 58.754 433.005 56.492" style="fill:#c2d6ed"/><path d="M540.951,119.321a3.363,3.363,0,1,1-3.363-3.363A3.366,3.366,0,0,1,540.951,119.321Zm-1.572,0a1.791,1.791,0,1,0-1.791,1.791A1.793,1.793,0,0,0,539.379,119.321Z" style="fill:#c2d6ed"/><rect x="536.802" y="121.897" width="1.572" height="68.232" style="fill:#c2d6ed"/><polygon points="540.253 186.998 537.588 189.664 534.924 186.998 534.924 189.261 537.588 191.926 540.253 189.261 540.253 186.998" style="fill:#c2d6ed"/><path d="M495.606,168.677a3.363,3.363,0,1,1-3.363-3.363A3.366,3.366,0,0,1,495.606,168.677Zm-1.572,0a1.791,1.791,0,1,0-1.791,1.791A1.793,1.793,0,0,0,494.035,168.677Z" style="fill:#c2d6ed"/><path d="M508.366,144.643H502.82v23.248h-8v1.572h9.572V146.215h3.974a18.182,18.182,0,0,1,18.162,18.162v25.752H528.1V164.377A19.756,19.756,0,0,0,508.366,144.643Z" style="fill:#c2d6ed"/><polygon points="524.649 186.998 527.314 189.664 529.978 186.998 529.978 189.261 527.314 191.926 524.649 189.261 524.649 186.998" style="fill:#c2d6ed"/><path d="M116.317,75.426,92.928,82.442A18.7,18.7,0,0,0,81.014,94.494l-5.257,17.189" style="fill:none;stroke:#6c689b;stroke-linecap:round;stroke-linejoin:round;stroke-width:6px"/><path d="M116.317,192.991l-23.389,7.015a18.7,18.7,0,0,0-11.914,12.052l-5.257,17.189" style="fill:none;stroke:#6c689b;stroke-linecap:round;stroke-linejoin:round;stroke-width:6px"/><path d="M116.317,310.556l-23.389,7.015a18.7,18.7,0,0,0-11.914,12.052l-5.257,17.189" style="fill:none;stroke:#6c689b;stroke-linecap:round;stroke-linejoin:round;stroke-width:6px"/><path d="M116.317,428.121l-23.389,7.015a18.7,18.7,0,0,0-11.914,12.052l-5.257,17.189" style="fill:none;stroke:#6c689b;stroke-linecap:round;stroke-linejoin:round;stroke-width:6px"/><path d="M116.317,545.686,92.928,552.7a18.7,18.7,0,0,0-11.914,12.052l-5.257,17.189" style="fill:none;stroke:#6c689b;stroke-linecap:round;stroke-linejoin:round;stroke-width:6px"/><path d="M145.1,172.645a3.006,3.006,0,1,1,2.926-3A2.97,2.97,0,0,1,145.1,172.645Zm0-4.6a1.6,1.6,0,1,0,1.558,1.6A1.582,1.582,0,0,0,145.1,168.04Z" style="fill:#6c689b"/><path d="M145.1,68.771a3.006,3.006,0,1,1,2.926-3A2.97,2.97,0,0,1,145.1,68.771Zm0-4.6a1.6,1.6,0,1,0,1.558,1.6A1.582,1.582,0,0,0,145.1,64.166Z" style="fill:#6c689b"/><path d="M145.1,296.169a3.006,3.006,0,1,1,2.926-3A2.97,2.97,0,0,1,145.1,296.169Zm0-4.605a1.6,1.6,0,1,0,1.558,1.6A1.582,1.582,0,0,0,145.1,291.563Z" style="fill:#6c689b"/><path d="M146.275,154.211a3.006,3.006,0,1,1,2.926-3.005A2.97,2.97,0,0,1,146.275,154.211Zm0-4.605a1.6,1.6,0,1,0,1.559,1.6A1.581,1.581,0,0,0,146.275,149.606Z" style="fill:#6c689b"/><path d="M145.1,214.194a3.006,3.006,0,1,1,2.926-3A2.97,2.97,0,0,1,145.1,214.194Zm0-4.605a1.6,1.6,0,1,0,1.558,1.6A1.582,1.582,0,0,0,145.1,209.589Z" style="fill:#6c689b"/><path d="M165.326,131.1a3.006,3.006,0,1,1,2.926-3.005A2.97,2.97,0,0,1,165.326,131.1Zm0-4.605a1.6,1.6,0,1,0,1.559,1.6A1.581,1.581,0,0,0,165.326,126.49Z" style="fill:#6c689b"/><path d="M145.363,85.766a3.006,3.006,0,1,1,2.926-3.005A2.97,2.97,0,0,1,145.363,85.766Zm0-4.605a1.6,1.6,0,1,0,1.559,1.6A1.581,1.581,0,0,0,145.363,81.161Z" style="fill:#6c689b"/><polygon points="142.854 170.342 132.772 170.342 132.772 65.064 142.856 65.064 142.856 66.468 134.139 66.468 134.139 168.938 142.854 168.938 142.854 170.342" style="fill:#6c689b"/><rect x="144.413" y="171.942" width="1.368" height="36.944" style="fill:#6c689b"/><polygon points="157.309 335.416 132.772 335.416 132.772 220.637 144.413 220.637 144.413 213.492 145.781 213.492 145.781 222.042 134.139 222.042 134.139 334.011 155.942 334.011 155.942 293.866 147.339 293.866 147.339 292.462 157.309 292.462 157.309 335.416" style="fill:#6c689b"/><rect x="132.772" y="181.633" width="1.368" height="29.557" style="fill:#6c689b"/><polygon points="135.774 184.43 133.455 182.048 131.137 184.43 131.137 182.408 133.455 180.027 135.774 182.408 135.774 184.43" style="fill:#6c689b"/><path d="M145.04,392.814a3.006,3.006,0,1,1,2.926-3A2.969,2.969,0,0,1,145.04,392.814Zm0-4.605a1.6,1.6,0,1,0,1.559,1.6A1.582,1.582,0,0,0,145.04,388.209Z" style="fill:#6c689b"/><path d="M145.04,351.265a3.006,3.006,0,1,1,2.926-3.005A2.97,2.97,0,0,1,145.04,351.265Zm0-4.605a1.6,1.6,0,1,0,1.559,1.6A1.581,1.581,0,0,0,145.04,346.66Z" style="fill:#6c689b"/><path d="M145.724,387.507h-1.368v-7.146H134.5V368.746a10.719,10.719,0,0,1,9.853-10.8v-7.384h1.368v8.766h-.684a9.306,9.306,0,0,0-9.169,9.417v10.21h9.853Z" style="fill:#6c689b"/><polygon points="156.855 213.531 155.487 213.531 155.487 151.908 148.517 151.908 148.517 150.504 156.855 150.504 156.855 213.531" style="fill:#6c689b"/><path d="M155.1,279.678a3.006,3.006,0,1,1,2.926-3A2.97,2.97,0,0,1,155.1,279.678Zm0-4.6a1.6,1.6,0,1,0,1.558,1.6A1.582,1.582,0,0,0,155.1,275.073Z" style="fill:#6c689b"/><polygon points="165.682 338.998 164.314 338.998 164.314 277.376 157.344 277.376 157.344 275.971 165.682 275.971 165.682 338.998" style="fill:#6c689b"/><path d="M166.009,151.206h-1.368V138.99H144.413V108.338A11.451,11.451,0,0,1,155.7,96.751h10.314v29.037h-1.368V98.156H155.7a10.063,10.063,0,0,0-9.915,10.183v29.248h20.229Z" style="fill:#6c689b"/><rect x="154.527" y="108.921" width="1.368" height="19.17" style="fill:#6c689b"/><polygon points="152.893 111.719 155.211 109.336 157.53 111.719 157.53 109.697 155.211 107.316 152.893 109.697 152.893 111.719" style="fill:#6c689b"/><rect x="144.413" y="303.316" width="1.368" height="20.194" style="fill:#6c689b"/><polygon points="147.415 320.713 145.097 323.095 142.778 320.713 142.778 322.734 145.097 325.115 147.415 322.734 147.415 320.713" style="fill:#6c689b"/><path d="M136.047,417.558a3.006,3.006,0,1,1,2.926-3A2.97,2.97,0,0,1,136.047,417.558Zm0-4.605a1.6,1.6,0,1,0,1.558,1.6A1.582,1.582,0,0,0,136.047,412.953Z" style="fill:#6c689b"/><path d="M138.289,415.256v-1.4a17.561,17.561,0,0,0,17.3-17.77V346.706h1.368v49.375A18.949,18.949,0,0,1,138.289,415.256Z" style="fill:#6c689b"/><polygon points="158.595 349.504 156.276 347.121 153.958 349.504 153.958 347.482 156.276 345.101 158.595 347.482 158.595 349.504" style="fill:#6c689b"/><path d="M145.1,279.93a3.138,3.138,0,1,1,2.926-3.13A3.037,3.037,0,0,1,145.1,279.93Zm0-4.856a1.735,1.735,0,1,0,1.558,1.726A1.651,1.651,0,0,0,145.1,275.073Z" style="fill:#6c689b"/><rect x="144.413" y="245.354" width="1.368" height="29.017" style="fill:#6c689b"/><polygon points="147.415 248.152 145.097 245.769 142.778 248.152 142.778 246.13 145.097 243.749 147.415 246.13 147.415 248.152" style="fill:#6c689b"/><rect x="164.642" y="171.552" width="1.368" height="89.713" style="fill:#6c689b"/><polygon points="167.644 258.468 165.326 260.851 163.007 258.468 163.007 260.49 165.326 262.871 167.644 260.49 167.644 258.468" style="fill:#6c689b"/><polygon points="167.644 174.35 165.326 171.967 163.007 174.35 163.007 172.328 165.326 169.947 167.644 172.328 167.644 174.35" style="fill:#6c689b"/><rect x="164.642" y="347.255" width="1.368" height="89.713" style="fill:#6c689b"/><polygon points="167.644 434.171 165.326 436.554 163.007 434.171 163.007 436.193 165.326 438.574 167.644 436.193 167.644 434.171" style="fill:#6c689b"/><polygon points="167.644 350.053 165.326 347.67 163.007 350.053 163.007 348.031 165.326 345.65 167.644 348.031 167.644 350.053" style="fill:#6c689b"/><path d="M145.451,237.272a3.006,3.006,0,1,1,2.926-3A2.97,2.97,0,0,1,145.451,237.272Zm0-4.605a1.6,1.6,0,1,0,1.558,1.6A1.582,1.582,0,0,0,145.451,232.666Z" style="fill:#6c689b"/><rect x="147.693" y="233.565" width="7.02" height="1.404" style="fill:#6c689b"/><polygon points="151.989 236.648 154.309 234.267 151.989 231.886 153.958 231.886 156.276 234.267 153.958 236.648 151.989 236.648" style="fill:#6c689b"/><path d="M156.88,68.771a3.006,3.006,0,1,1,2.926-3A2.969,2.969,0,0,1,156.88,68.771Zm0-4.6a1.6,1.6,0,1,0,1.558,1.6A1.581,1.581,0,0,0,156.88,64.166Z" style="fill:#6c689b"/><rect x="159.121" y="65.064" width="7.02" height="1.404" style="fill:#6c689b"/><polygon points="163.417 68.147 165.737 65.766 163.417 63.385 165.386 63.385 167.705 65.766 165.386 68.147 163.417 68.147" style="fill:#6c689b"/><path d="M146.971,494.439a3.006,3.006,0,1,1,2.926-3A2.969,2.969,0,0,1,146.971,494.439Zm0-4.605a1.6,1.6,0,1,0,1.559,1.6A1.582,1.582,0,0,0,146.971,489.833Z" style="fill:#6c689b"/><path d="M146.971,433.239a3.006,3.006,0,1,1,2.926-3.005A2.97,2.97,0,0,1,146.971,433.239Zm0-4.605a1.6,1.6,0,1,0,1.559,1.6A1.581,1.581,0,0,0,146.971,428.634Z" style="fill:#6c689b"/><polygon points="144.729 492.136 135.699 492.136 135.699 429.532 144.729 429.532 144.729 430.936 137.067 430.936 137.067 490.732 144.729 490.732 144.729 492.136" style="fill:#6c689b"/><rect x="146.057" y="440.059" width="1.368" height="39.147" style="fill:#6c689b"/><polygon points="144.423 476.409 146.741 478.791 149.06 476.409 149.06 478.431 146.741 480.812 144.423 478.431 144.423 476.409" style="fill:#6c689b"/><path d="M156.687,535.437a3.006,3.006,0,1,1,2.926-3A2.97,2.97,0,0,1,156.687,535.437Zm0-4.605a1.6,1.6,0,1,0,1.558,1.6A1.582,1.582,0,0,0,156.687,530.831Z" style="fill:#6c689b"/><polygon points="165.682 543.332 135.774 543.332 135.774 501.093 157.371 501.093 157.371 530.129 156.003 530.129 156.003 502.497 137.141 502.497 137.141 541.927 164.314 541.927 164.314 448.226 165.682 448.226 165.682 543.332" style="fill:#6c689b"/><polygon points="167.317 451.023 164.998 448.641 162.68 451.023 162.68 449.002 164.998 446.621 167.317 449.002 167.317 451.023" style="fill:#6c689b"/><rect x="145.888" y="513.262" width="1.368" height="19.169" style="fill:#6c689b"/><polygon points="144.254 516.06 146.572 513.677 148.891 516.06 148.891 514.038 146.572 511.657 144.254 514.038 144.254 516.06" style="fill:#6c689b"/><rect x="154.418" y="247.182" width="1.368" height="14.083" style="fill:#6c689b"/><polygon points="152.783 258.468 155.102 260.851 157.42 258.468 157.42 260.49 155.102 262.871 152.783 260.49 152.783 258.468" style="fill:#6c689b"/><rect x="156.66" y="427.932" width="1.368" height="63.502" style="fill:#6c689b"/><rect x="147.605" y="82.059" width="16.157" height="1.404" style="fill:#6c689b"/><polygon points="161.039 85.142 163.358 82.761 161.039 80.38 163.007 80.38 165.326 82.761 163.007 85.142 161.039 85.142" style="fill:#6c689b"/><path d="M371.851,556.633a3.025,3.025,0,1,1-3.025-3.023A3.027,3.027,0,0,1,371.851,556.633Zm-4.636,0a1.611,1.611,0,1,0,1.611-1.61A1.612,1.612,0,0,0,367.215,556.633Z" style="fill:#c2d6ed"/><polygon points="369.533 558.949 369.533 568.276 315.866 568.276 315.866 558.949 317.07 558.949 317.07 566.863 368.329 566.863 368.329 558.949 369.533 558.949" style="fill:#c2d6ed"/><rect x="317.108" y="556.164" width="39.408" height="1.413" style="fill:#c2d6ed"/><polygon points="353.701 559.265 356.099 556.87 353.701 554.475 355.736 554.475 358.133 556.87 355.736 559.265 353.701 559.265" style="fill:#c2d6ed"/><path d="M413.122,546.6a3.025,3.025,0,1,1-3.025-3.022A3.027,3.027,0,0,1,413.122,546.6Zm-4.636,0a1.611,1.611,0,1,0,1.611-1.61A1.613,1.613,0,0,0,408.486,546.6Z" style="fill:#c2d6ed"/><polygon points="421.07 538.712 421.07 568.199 378.549 568.199 378.549 545.89 407.779 545.89 407.779 547.303 379.963 547.303 379.963 566.786 419.656 566.786 419.656 538.718 421.07 538.712" style="fill:#c2d6ed"/><rect x="390.8" y="556.338" width="19.297" height="1.413" style="fill:#c2d6ed"/><polygon points="393.616 559.44 391.218 557.045 393.616 554.65 391.581 554.65 389.184 557.045 391.581 559.44 393.616 559.44" style="fill:#c2d6ed"/><rect x="317.109" y="546.212" width="51.718" height="1.413" style="fill:#c2d6ed"/><rect x="315.864" y="556.163" width="1.394" height="12.035" style="fill:#c2d6ed"/><path d="M363.608,58.7a3.066,3.066,0,1,1,3.066,3.023A3.048,3.048,0,0,1,363.608,58.7Zm4.7,0a1.633,1.633,0,1,0-1.633,1.61A1.623,1.623,0,0,0,368.307,58.7Z" style="fill:#c2d6ed"/><polygon points="365.957 56.383 365.957 47.056 420.356 47.056 420.356 56.383 419.136 56.383 419.136 48.468 367.178 48.468 367.178 56.383 365.957 56.383" style="fill:#c2d6ed"/><rect x="379.151" y="57.755" width="39.945" height="1.413" style="fill:#c2d6ed"/><polygon points="382.006 56.067 379.575 58.462 382.006 60.857 379.943 60.857 377.513 58.462 379.943 56.067 382.006 56.067" style="fill:#c2d6ed"/><path d="M321.775,68.735a3.066,3.066,0,1,1,3.066,3.022A3.048,3.048,0,0,1,321.775,68.735Zm4.7,0a1.633,1.633,0,1,0-1.633,1.61A1.624,1.624,0,0,0,326.474,68.735Z" style="fill:#c2d6ed"/><polygon points="313.718 76.571 313.718 47.132 356.819 47.132 356.819 69.441 327.19 69.441 327.19 68.028 355.385 68.028 355.385 48.545 315.151 48.545 315.151 76.613 313.718 76.571" style="fill:#c2d6ed"/><rect x="324.841" y="57.58" width="19.56" height="1.413" style="fill:#c2d6ed"/><polygon points="341.546 55.892 343.977 58.287 341.546 60.682 343.609 60.682 346.039 58.287 343.609 55.892 341.546 55.892" style="fill:#c2d6ed"/><rect x="366.674" y="67.707" width="52.422" height="1.413" style="fill:#c2d6ed"/><rect x="418.945" y="47.133" width="1.413" height="12.035" style="fill:#c2d6ed"/><path d="M432.422,541.066a3.363,3.363,0,1,1,3.363-3.363A3.367,3.367,0,0,1,432.422,541.066Zm0-5.154a1.791,1.791,0,1,0,1.791,1.791A1.793,1.793,0,0,0,432.422,535.912Z" style="fill:#c2d6ed"/><rect x="431.636" y="516.251" width="1.572" height="18.875" style="fill:#c2d6ed"/><polygon points="435.086 519.382 432.422 516.716 429.757 519.382 429.757 517.119 432.422 514.455 435.086 517.119 435.086 519.382" style="fill:#c2d6ed"/><path d="M303.531,540.056a3.363,3.363,0,1,1,3.363-3.363A3.367,3.367,0,0,1,303.531,540.056Zm0-5.154a1.791,1.791,0,1,0,1.791,1.791A1.793,1.793,0,0,0,303.531,534.9Z" style="fill:#c2d6ed"/><rect x="302.745" y="515.241" width="1.572" height="18.875" style="fill:#c2d6ed"/><polygon points="306.195 518.371 303.53 515.705 300.866 518.371 300.866 516.109 303.53 513.444 306.195 516.109 306.195 518.371" style="fill:#c2d6ed"/><path d="M301.525,98.448a3.363,3.363,0,1,1,3.363-3.363A3.367,3.367,0,0,1,301.525,98.448Zm0-5.154a1.791,1.791,0,1,0,1.791,1.791A1.793,1.793,0,0,0,301.525,93.294Z" style="fill:#c2d6ed"/><rect x="300.739" y="73.633" width="1.572" height="18.875" style="fill:#c2d6ed"/><polygon points="304.189 76.764 301.525 74.098 298.86 76.764 298.86 74.501 301.525 71.837 304.189 74.501 304.189 76.764" style="fill:#c2d6ed"/><path d="M430.34,98.817a3.363,3.363,0,1,1,3.363-3.363A3.367,3.367,0,0,1,430.34,98.817Zm0-5.154a1.791,1.791,0,1,0,1.791,1.791A1.793,1.793,0,0,0,430.34,93.664Z" style="fill:#c2d6ed"/><rect x="429.555" y="74.003" width="1.572" height="18.875" style="fill:#c2d6ed"/><polygon points="433.005 77.133 430.34 74.467 427.676 77.133 427.676 74.871 430.34 72.206 433.005 74.871 433.005 77.133" style="fill:#c2d6ed"/><path d="M558.048,43.046c0-4.81-4.606-8.709-10.288-8.709H491.426l66.621,66.375Z" style="stroke-linecap:round;stroke-linejoin:round;stroke-width:3px;fill:url(#x);stroke:url(#y)"/><polygon points="176.028 34.337 176.028 104.722 246.674 34.337 176.028 34.337" style="stroke-linecap:round;stroke-linejoin:round;stroke-width:3px;fill:url(#z);stroke:url(#aa)"/><polygon points="176.028 578.817 242.903 578.817 176.028 512.19 176.028 578.817" style="stroke-linecap:round;stroke-linejoin:round;stroke-width:3px;fill:url(#ab);stroke:url(#ac)"/><path d="M547.76,578.817c5.682,0,10.288-3.9,10.288-8.709V512.354l-66.71,66.463Z" style="stroke-linecap:round;stroke-linejoin:round;stroke-width:3px;fill:url(#ad);stroke:url(#ae)"/><g style="opacity:0.4;filter:url(#af)"><rect x="211.683" y="283.33" width="307.47" height="9.319" rx="2.061" ry="2.061" style="fill:#fff"/><path d="M320.167,158.348H308.611v-7.705h31.47v7.705H328.524v30.276h-8.357Z" style="fill:#fff"/><path d="M348.652,150.643h8.357v15.029H372.42V150.643h8.354v37.981H372.42V173.377H357.009v15.247h-8.357Z" style="fill:#fff"/><path d="M392.06,150.643h28.6v7.434H400.309v7.705h17.905v7.432H400.309v7.977h20.619v7.434H392.06Z" style="fill:#fff"/><path d="M218.565,215.753h8.357v37.981h-8.357Z" style="fill:#fff"/><path d="M238.588,215.753h7.705l17.8,23.385V215.753h8.248v37.981H265.23L246.836,229.59v24.145h-8.248Z" style="fill:#fff"/><path d="M292.465,223.459H280.91v-7.705h31.47v7.705H300.822v30.276h-8.357Z" style="fill:#fff"/><path d="M320.953,215.753h28.6v7.434H329.2v7.705h17.905v7.432H329.2V246.3H349.82v7.434H320.953Z" style="fill:#fff"/><path d="M359.477,215.753h17.365q7.216,0,11.068,3.853a11.735,11.735,0,0,1,3.257,8.681v.108a11.911,11.911,0,0,1-2.252,7.515,13.046,13.046,0,0,1-5.888,4.259l9.279,13.565h-9.767L374.4,241.581h-6.566v12.154h-8.357ZM376.3,234.2a6.942,6.942,0,0,0,4.747-1.466,4.956,4.956,0,0,0,1.656-3.906v-.11a4.843,4.843,0,0,0-1.738-4.069,7.672,7.672,0,0,0-4.829-1.356h-8.3V234.2Z" style="fill:#fff"/><path d="M400.876,215.753h7.705l17.8,23.385V215.753h8.248v37.981h-7.109L409.124,229.59v24.145h-8.248Z" style="fill:#fff"/><path d="M445.911,215.753h28.6v7.434H454.16v7.705h17.905v7.432H454.16V246.3h20.619v7.434H445.911Z" style="fill:#fff"/><path d="M493.28,223.459H481.724v-7.705h31.47v7.705H501.637v30.276H493.28Z" style="fill:#fff"/><path d="M227.22,322.469h34.868a52.864,52.864,0,0,1,19.224,3.385,45.391,45.391,0,0,1,15.071,9.388,41.809,41.809,0,0,1,9.772,14.115,44.419,44.419,0,0,1,3.449,17.561v.256a44.875,44.875,0,0,1-3.449,17.625,41.614,41.614,0,0,1-9.772,14.179,46.226,46.226,0,0,1-15.071,9.452,52,52,0,0,1-19.224,3.449H227.22Zm34.868,71.655a30.382,30.382,0,0,0,10.984-1.916,23.637,23.637,0,0,0,8.5-5.493,25.781,25.781,0,0,0,5.491-8.429,28.487,28.487,0,0,0,1.98-10.856v-.256a29.141,29.141,0,0,0-1.98-10.858,25.534,25.534,0,0,0-5.491-8.558,24.377,24.377,0,0,0-8.5-5.555,29.475,29.475,0,0,0-10.984-1.98h-15.2v53.9Z" style="fill:#fff"/><path d="M332.211,322.469h18.137l41.893,55.05v-55.05h19.413v89.408H394.924l-43.3-56.838v56.838H332.211Z" style="fill:#fff"/><path d="M470.155,413.155a59.228,59.228,0,0,1-20.054-3.513,53.058,53.058,0,0,1-17.881-10.794l11.622-13.923a58.335,58.335,0,0,0,12.58,7.919,33.622,33.622,0,0,0,14.115,2.939q6.13,0,9.516-2.237a7.038,7.038,0,0,0,3.385-6.2V387.1a7.753,7.753,0,0,0-.7-3.385,7.13,7.13,0,0,0-2.689-2.747,28.388,28.388,0,0,0-5.506-2.554q-3.524-1.275-9.158-2.683a111.19,111.19,0,0,1-12.3-3.7,34.545,34.545,0,0,1-9.348-5.045,20.38,20.38,0,0,1-5.954-7.471,25.947,25.947,0,0,1-2.113-11.112v-.256a25.912,25.912,0,0,1,2.283-11.048,25.132,25.132,0,0,1,6.407-8.493,28.772,28.772,0,0,1,9.851-5.493,39.55,39.55,0,0,1,12.622-1.916,53.462,53.462,0,0,1,18.073,2.939,52.415,52.415,0,0,1,15.137,8.429l-10.218,14.817a64.945,64.945,0,0,0-11.752-6.451,30.043,30.043,0,0,0-11.494-2.362q-5.749,0-8.622,2.234a6.8,6.8,0,0,0-2.875,5.557v.256a8.04,8.04,0,0,0,.832,3.767,7.516,7.516,0,0,0,3.009,2.875,28.321,28.321,0,0,0,5.954,2.426q3.779,1.149,9.542,2.683a92.241,92.241,0,0,1,12.1,4.023,33.945,33.945,0,0,1,8.964,5.365,20.46,20.46,0,0,1,5.506,7.345,24.934,24.934,0,0,1,1.859,10.09v.256a27.7,27.7,0,0,1-2.411,11.814,24.253,24.253,0,0,1-6.727,8.686,30.292,30.292,0,0,1-10.3,5.365A44.809,44.809,0,0,1,470.155,413.155Z" style="fill:#fff"/></g><rect x="211.683" y="283.33" width="307.47" height="9.319" rx="2.061" ry="2.061" style="fill:#dbe5f4;stroke:#fff;stroke-miterlimit:10;stroke-width:3px"/><path d="M320.167,158.348H308.611v-7.705h31.47v7.705H328.524v30.276h-8.357Z" style="fill:#dbe5f4;stroke:#fff;stroke-miterlimit:10;stroke-width:3px"/><path d="M348.652,150.643h8.357v15.029H372.42V150.643h8.354v37.981H372.42V173.377H357.009v15.247h-8.357Z" style="fill:#dbe5f4;stroke:#fff;stroke-miterlimit:10;stroke-width:3px"/><path d="M392.06,150.643h28.6v7.434H400.309v7.705h17.905v7.432H400.309v7.977h20.619v7.434H392.06Z" style="fill:#dbe5f4;stroke:#fff;stroke-miterlimit:10;stroke-width:3px"/><path d="M218.565,215.753h8.357v37.981h-8.357Z" style="fill:#dbe5f4;stroke:#fff;stroke-miterlimit:10;stroke-width:3px"/><path d="M238.588,215.753h7.705l17.8,23.385V215.753h8.248v37.981H265.23L246.836,229.59v24.145h-8.248Z" style="fill:#dbe5f4;stroke:#fff;stroke-miterlimit:10;stroke-width:3px"/><path d="M292.465,223.459H280.91v-7.705h31.47v7.705H300.822v30.276h-8.357Z" style="fill:#dbe5f4;stroke:#fff;stroke-miterlimit:10;stroke-width:3px"/><path d="M320.953,215.753h28.6v7.434H329.2v7.705h17.905v7.432H329.2V246.3H349.82v7.434H320.953Z" style="fill:#dbe5f4;stroke:#fff;stroke-miterlimit:10;stroke-width:3px"/><path d="M359.477,215.753h17.365q7.216,0,11.068,3.853a11.735,11.735,0,0,1,3.257,8.681v.108a11.911,11.911,0,0,1-2.252,7.515,13.046,13.046,0,0,1-5.888,4.259l9.279,13.565h-9.767L374.4,241.581h-6.566v12.154h-8.357ZM376.3,234.2a6.942,6.942,0,0,0,4.747-1.466,4.956,4.956,0,0,0,1.656-3.906v-.11a4.843,4.843,0,0,0-1.738-4.069,7.672,7.672,0,0,0-4.829-1.356h-8.3V234.2Z" style="fill:#dbe5f4;stroke:#fff;stroke-miterlimit:10;stroke-width:3px"/><path d="M400.876,215.753h7.705l17.8,23.385V215.753h8.248v37.981h-7.109L409.124,229.59v24.145h-8.248Z" style="fill:#dbe5f4;stroke:#fff;stroke-miterlimit:10;stroke-width:3px"/><path d="M445.911,215.753h28.6v7.434H454.16v7.705h17.905v7.432H454.16V246.3h20.619v7.434H445.911Z" style="fill:#dbe5f4;stroke:#fff;stroke-miterlimit:10;stroke-width:3px"/><path d="M493.28,223.459H481.724v-7.705h31.47v7.705H501.637v30.276H493.28Z" style="fill:#dbe5f4;stroke:#fff;stroke-miterlimit:10;stroke-width:3px"/><path d="M227.22,322.469h34.868a52.864,52.864,0,0,1,19.224,3.385,45.391,45.391,0,0,1,15.071,9.388,41.809,41.809,0,0,1,9.772,14.115,44.419,44.419,0,0,1,3.449,17.561v.256a44.875,44.875,0,0,1-3.449,17.625,41.614,41.614,0,0,1-9.772,14.179,46.226,46.226,0,0,1-15.071,9.452,52,52,0,0,1-19.224,3.449H227.22Zm34.868,71.655a30.382,30.382,0,0,0,10.984-1.916,23.637,23.637,0,0,0,8.5-5.493,25.781,25.781,0,0,0,5.491-8.429,28.487,28.487,0,0,0,1.98-10.856v-.256a29.141,29.141,0,0,0-1.98-10.858,25.534,25.534,0,0,0-5.491-8.558,24.377,24.377,0,0,0-8.5-5.555,29.475,29.475,0,0,0-10.984-1.98h-15.2v53.9Z" style="fill:#dbe5f4;stroke:#fff;stroke-miterlimit:10;stroke-width:3px"/><path d="M332.211,322.469h18.137l41.893,55.05v-55.05h19.413v89.408H394.924l-43.3-56.838v56.838H332.211Z" style="fill:#dbe5f4;stroke:#fff;stroke-miterlimit:10;stroke-width:3px"/><path d="M470.155,413.155a59.228,59.228,0,0,1-20.054-3.513,53.058,53.058,0,0,1-17.881-10.794l11.622-13.923a58.335,58.335,0,0,0,12.58,7.919,33.622,33.622,0,0,0,14.115,2.939q6.13,0,9.516-2.237a7.038,7.038,0,0,0,3.385-6.2V387.1a7.753,7.753,0,0,0-.7-3.385,7.13,7.13,0,0,0-2.689-2.747,28.388,28.388,0,0,0-5.506-2.554q-3.524-1.275-9.158-2.683a111.19,111.19,0,0,1-12.3-3.7,34.545,34.545,0,0,1-9.348-5.045,20.38,20.38,0,0,1-5.954-7.471,25.947,25.947,0,0,1-2.113-11.112v-.256a25.912,25.912,0,0,1,2.283-11.048,25.132,25.132,0,0,1,6.407-8.493,28.772,28.772,0,0,1,9.851-5.493,39.55,39.55,0,0,1,12.622-1.916,53.462,53.462,0,0,1,18.073,2.939,52.415,52.415,0,0,1,15.137,8.429l-10.218,14.817a64.945,64.945,0,0,0-11.752-6.451,30.043,30.043,0,0,0-11.494-2.362q-5.749,0-8.622,2.234a6.8,6.8,0,0,0-2.875,5.557v.256a8.04,8.04,0,0,0,.832,3.767,7.516,7.516,0,0,0,3.009,2.875,28.321,28.321,0,0,0,5.954,2.426q3.779,1.149,9.542,2.683a92.241,92.241,0,0,1,12.1,4.023,33.945,33.945,0,0,1,8.964,5.365,20.46,20.46,0,0,1,5.506,7.345,24.934,24.934,0,0,1,1.859,10.09v.256a27.7,27.7,0,0,1-2.411,11.814,24.253,24.253,0,0,1-6.727,8.686,30.292,30.292,0,0,1-10.3,5.365A44.809,44.809,0,0,1,470.155,413.155Z" style="fill:#dbe5f4;stroke:#fff;stroke-miterlimit:10;stroke-width:3px"/></svg>
